<?xml version="1.0" encoding="UTF-8" standalone="no"?><!DOCTYPE svg PUBLIC "-//W3C//DTD SVG 1.1//EN" "http://www.w3.org/Graphics/SVG/1.1/DTD/svg11.dtd"><svg width="100%" height="100%" viewBox="0 0 13750 9167" version="1.1" xmlns="http://www.w3.org/2000/svg" xmlns:xlink="http://www.w3.org/1999/xlink" xml:space="preserve" xmlns:serif="http://www.serif.com/" style="fill-rule:evenodd;clip-rule:evenodd;"><g id="Notes"><rect id="artboard" x="0" y="0" width="13750" height="9166.67" style="fill:#fff;"/><path d="M1095.83,1216.67l11554.2,-0" style="fill:none;fill-rule:nonzero;stroke:#000;stroke-width:2.08px;"/><text x="1095.83px" y="1341.67px" style="font-family:'LucidaGrande-Bold', 'Lucida Grande', sans-serif;font-weight:600;font-size:54.167px;">Weight/Scale Variations</text><text x="2209.88px" y="1341.67px" style="font-family:'LucidaGrande', 'Lucida Grande', sans-serif;font-weight:500;font-size:54.167px;">Ultralight</text><text x="3509.86px" y="1341.67px" style="font-family:'LucidaGrande', 'Lucida Grande', sans-serif;font-weight:500;font-size:54.167px;">Thin</text><text x="4738.61px" y="1341.67px" style="font-family:'LucidaGrande', 'Lucida Grande', sans-serif;font-weight:500;font-size:54.167px;">Light</text><text x="5941.22px" y="1341.67px" style="font-family:'LucidaGrande', 'Lucida Grande', sans-serif;font-weight:500;font-size:54.167px;">Regular</text><text x="7171.95px" y="1341.67px" style="font-family:'LucidaGrande', 'Lucida Grande', sans-serif;font-weight:500;font-size:54.167px;">Medium</text><text x="8392.28px" y="1341.67px" style="font-family:'LucidaGrande', 'Lucida Grande', sans-serif;font-weight:500;font-size:54.167px;">Semibold</text><text x="9692.83px" y="1341.67px" style="font-family:'LucidaGrande', 'Lucida Grande', sans-serif;font-weight:500;font-size:54.167px;">Bold</text><text x="10908.1px" y="1341.67px" style="font-family:'LucidaGrande', 'Lucida Grande', sans-serif;font-weight:500;font-size:54.167px;">Heavy</text><text x="12154.4px" y="1341.67px" style="font-family:'LucidaGrande', 'Lucida Grande', sans-serif;font-weight:500;font-size:54.167px;">Black</text><path d="M1095.83,7929.17l11554.2,-0" style="fill:none;fill-rule:nonzero;stroke:#000;stroke-width:2.08px;"/><g><path d="M1134.37,8057.62c17.944,0 32.878,-14.892 32.878,-32.837c-0,-17.944 -14.975,-32.836 -32.919,-32.836c-17.903,-0 -32.796,14.892 -32.796,32.836c-0,17.945 14.933,32.837 32.837,32.837Zm-0,-6.185c-14.771,0 -26.571,-11.84 -26.571,-26.652c0,-14.811 11.76,-26.652 26.53,-26.652c14.812,0 26.693,11.841 26.693,26.652c-0,14.812 -11.841,26.652 -26.652,26.652Zm-14.974,-26.652c-0,1.791 1.261,3.012 3.133,3.012l8.748,-0l0,8.829c0,1.831 1.221,3.093 3.012,3.093c1.871,-0 3.092,-1.262 3.092,-3.093l-0,-8.829l8.83,-0c1.831,-0 3.092,-1.221 3.092,-3.012c0,-1.831 -1.261,-3.092 -3.092,-3.092l-8.83,-0l-0,-8.789c-0,-1.872 -1.221,-3.133 -3.092,-3.133c-1.791,-0 -3.012,1.261 -3.012,3.133l0,8.789l-8.748,-0c-1.872,-0 -3.133,1.261 -3.133,3.092Z" style="fill-rule:nonzero;"/></g><g><path d="M1223.23,8066.29c22.705,0 41.504,-18.839 41.504,-41.504c0,-22.705 -18.839,-41.503 -41.544,-41.503c-22.665,-0 -41.464,18.798 -41.464,41.503c0,22.665 18.84,41.504 41.504,41.504Zm0,-6.917c-19.205,0 -34.546,-15.381 -34.546,-34.587c0,-19.205 15.3,-34.586 34.506,-34.586c19.205,-0 34.627,15.381 34.627,34.586c0,19.206 -15.381,34.587 -34.587,34.587Zm-18.88,-34.587c0,1.994 1.384,3.337 3.459,3.337l11.963,0l-0,12.004c-0,2.034 1.383,3.458 3.377,3.458c2.034,0 3.458,-1.383 3.458,-3.458l0,-12.004l12.004,0c2.035,0 3.459,-1.343 3.459,-3.337c-0,-2.034 -1.424,-3.458 -3.459,-3.458l-12.004,-0l0,-11.963c0,-2.075 -1.424,-3.499 -3.458,-3.499c-1.994,-0.001 -3.377,1.424 -3.377,3.499l-0,11.963l-11.963,-0c-2.075,-0 -3.459,1.424 -3.459,3.458Z" style="fill-rule:nonzero;"/></g><g><path d="M1335.9,8077.77c29.012,-0 53.019,-24.007 53.019,-52.979c0,-29.012 -24.048,-53.019 -53.06,-53.019c-28.971,0 -52.938,24.007 -52.938,53.019c0,28.972 24.008,52.979 52.979,52.979Zm-0,-7.568c-25.147,-0 -45.37,-20.264 -45.37,-45.411c0,-25.187 20.183,-45.41 45.329,-45.41c25.188,0 45.451,20.223 45.451,45.41c-0,25.147 -20.223,45.411 -45.41,45.411Zm-24.048,-45.411c0,2.157 1.546,3.663 3.825,3.663l16.439,-0l-0,16.479c-0,2.238 1.546,3.825 3.703,3.825c2.238,-0 3.784,-1.546 3.784,-3.825l-0,-16.479l16.479,-0c2.238,-0 3.825,-1.506 3.825,-3.663c-0,-2.278 -1.546,-3.824 -3.825,-3.824l-16.479,-0l-0,-16.439c-0,-2.279 -1.546,-3.866 -3.784,-3.866c-2.157,0 -3.703,1.587 -3.703,3.866l-0,16.439l-16.439,-0c-2.279,-0 -3.825,1.546 -3.825,3.824Z" style="fill-rule:nonzero;"/></g><text x="1095.83px" y="8137.5px" style="font-family:'LucidaGrande-Bold', 'Lucida Grande', sans-serif;font-weight:600;font-size:54.167px;">Design Variations</text><text x="1095.83px" y="8212.5px" style="font-family:'LucidaGrande', 'Lucida Grande', sans-serif;font-weight:500;font-size:54.167px;">Symbols are supported in up to nine weights and three scales.</text><text x="1095.83px" y="8287.5px" style="font-family:'LucidaGrande', 'Lucida Grande', sans-serif;font-weight:500;font-size:54.167px;">For optimal layout with text and other symbols, vertically align</text><text x="1095.83px" y="8362.5px" style="font-family:'LucidaGrande', 'Lucida Grande', sans-serif;font-weight:500;font-size:54.167px;">symbols with the adjacent text.</text><path d="M3233.33,7995.83l0,58.334" style="fill:none;fill-rule:nonzero;stroke:#00aeef;stroke-width:2.08px;"/><g><path d="M3247.13,8054.82c2.157,-0 3.215,-0.814 3.988,-3.093l5.249,-14.363l24.007,-0l5.249,14.363c0.773,2.279 1.831,3.093 3.947,3.093c2.157,-0 3.54,-1.302 3.54,-3.337c0,-0.692 -0.122,-1.343 -0.447,-2.197l-19.084,-50.822c-0.936,-2.482 -2.604,-3.744 -5.208,-3.744c-2.523,0 -4.232,1.221 -5.127,3.703l-19.084,50.904c-0.326,0.854 -0.448,1.505 -0.448,2.197c0,2.034 1.302,3.296 3.418,3.296Zm11.231,-23.641l9.887,-27.385l0.204,0l9.888,27.385l-19.979,-0Z" style="fill-rule:nonzero;"/></g><path d="M3304.99,7995.83l-0.001,58.334" style="fill:none;fill-rule:nonzero;stroke:#00aeef;stroke-width:2.08px;"/><text x="3233.33px" y="8137.5px" style="font-family:'LucidaGrande-Bold', 'Lucida Grande', sans-serif;font-weight:600;font-size:54.167px;">Margins</text><text x="3233.33px" y="8212.5px" style="font-family:'LucidaGrande', 'Lucida Grande', sans-serif;font-weight:500;font-size:54.167px;">Leading and trailing margins on the left and right side of each symbol</text><text x="3233.33px" y="8287.5px" style="font-family:'LucidaGrande', 'Lucida Grande', sans-serif;font-weight:500;font-size:54.167px;">can be adjusted by modifying the x-location of the margin guidelines.</text><text x="3233.33px" y="8362.5px" style="font-family:'LucidaGrande', 'Lucida Grande', sans-serif;font-weight:500;font-size:54.167px;">Modiﬁcations are automatically applied proportionally to all</text><text x="3233.33px" y="8437.5px" style="font-family:'LucidaGrande', 'Lucida Grande', sans-serif;font-weight:500;font-size:54.167px;">scales and weights.</text><g><path d="M5382.67,8061.94l7.08,7.121c3.581,3.622 7.691,3.378 11.556,-0.895l44.556,-49.113l-4.028,-4.069l-44.231,48.665c-1.464,1.669 -2.848,2.076 -4.801,0.123l-4.883,-4.843c-1.953,-1.912 -1.505,-3.336 0.163,-4.842l47.811,-45.003l-4.069,-4.028l-48.299,45.369c-4.11,3.825 -4.436,7.894 -0.855,11.515Zm26.734,-75.805c-1.75,1.709 -1.872,4.11 -0.896,5.737c0.977,1.506 2.889,2.482 5.575,1.79c6.103,-1.424 12.451,-1.668 18.392,2.238l-2.441,6.063c-1.425,3.459 -0.692,5.9 1.546,8.179l9.562,9.644c2.034,2.034 3.743,2.115 6.103,1.709l4.436,-0.814l2.767,2.807l-0.163,2.32c-0.163,2.075 0.366,3.662 2.401,5.656l3.173,3.092c1.994,1.994 4.557,2.116 6.511,0.163l12.125,-12.167c1.954,-1.953 1.872,-4.435 -0.122,-6.429l-3.214,-3.173c-1.994,-1.994 -3.54,-2.645 -5.534,-2.483l-2.401,0.204l-2.685,-2.645l1.017,-4.679c0.529,-2.36 -0.122,-4.191 -2.564,-6.633l-9.155,-9.114c-13.916,-13.835 -32.389,-13.51 -44.433,-1.465Zm6.225,1.546c10.132,-7.406 23.845,-6.144 33.122,3.133l10.132,10.051c0.976,0.976 1.139,1.75 0.854,3.174l-1.343,6.184l6.267,6.185l4.11,-0.244c1.058,-0.041 1.383,0.041 2.197,0.855l2.401,2.4l-10.173,10.173l-2.401,-2.401c-0.814,-0.814 -0.936,-1.139 -0.895,-2.238l0.285,-4.069l-6.226,-6.185l-6.348,1.058c-1.342,0.285 -1.952,0.163 -2.97,-0.814l-8.341,-8.341c-1.058,-0.977 -1.18,-1.668 -0.529,-3.215l3.662,-8.707c-6.511,-6.063 -14.974,-8.667 -23.438,-6.185c-0.651,0.162 -0.895,-0.366 -0.366,-0.814Z" style="fill-rule:nonzero;"/></g><text x="5370.83px" y="8137.5px" style="font-family:'LucidaGrande-Bold', 'Lucida Grande', sans-serif;font-weight:600;font-size:54.167px;">Exporting</text><text x="5370.83px" y="8212.5px" style="font-family:'LucidaGrande', 'Lucida Grande', sans-serif;font-weight:500;font-size:54.167px;">Symbols should be outlined when exporting to ensure the</text><text x="5370.83px" y="8287.5px" style="font-family:'LucidaGrande', 'Lucida Grande', sans-serif;font-weight:500;font-size:54.167px;">design is preserved when submitting to Xcode.</text><text id="template-version" x="12256.9px" y="8054.17px" style="font-family:'LucidaGrande', 'Lucida Grande', sans-serif;font-weight:500;font-size:54.167px;">Template v.4.0</text><text x="11881.9px" y="8129.17px" style="font-family:'LucidaGrande', 'Lucida Grande', sans-serif;font-weight:500;font-size:54.167px;">Requires Xcode 14 or greater</text><text id="descriptive-name" x="11915.9px" y="8204.17px" style="font-family:'LucidaGrande', 'Lucida Grande', sans-serif;font-weight:500;font-size:54.167px;">Generated from custom.mic</text><text x="12076.3px" y="8279.17px" style="font-family:'LucidaGrande', 'Lucida Grande', sans-serif;font-weight:500;font-size:54.167px;">Typeset at 100 points</text><text x="1095.83px" y="3025px" style="font-family:'LucidaGrande', 'Lucida Grande', sans-serif;font-weight:500;font-size:54.167px;">Small</text><text x="1095.83px" y="4816.67px" style="font-family:'LucidaGrande', 'Lucida Grande', sans-serif;font-weight:500;font-size:54.167px;">Medium</text><text x="1095.83px" y="6608.33px" style="font-family:'LucidaGrande', 'Lucida Grande', sans-serif;font-weight:500;font-size:54.167px;">Large</text></g><g id="Guides"><g id="H-reference"><path d="M1416.64,2900l11.017,0l107.043,-279.718l2.926,0l0,-13.861l-7.949,-0l-113.037,293.579Zm44.562,-102l147.054,0l-3.125,-9.369l-140.804,0l-3.125,9.369Zm180.963,102l11.017,-0l-113.023,-293.579l-5.023,-0l-0,13.861l107.029,279.718Z" style="fill:#27aae1;fill-rule:nonzero;"/></g><path id="Baseline-S" d="M1095.83,2900l11554.2,0" style="fill:none;fill-rule:nonzero;stroke:#27aae1;stroke-width:2.08px;"/><path id="Capline-S" d="M1095.83,2606.42l11554.2,-0" style="fill:none;fill-rule:nonzero;stroke:#27aae1;stroke-width:2.08px;"/><g id="H-reference1" serif:id="H-reference"><path d="M1416.64,4691.67l11.017,-0l107.043,-279.718l2.926,-0l0,-13.861l-7.949,-0.001l-113.037,293.58Zm44.562,-102l147.054,0l-3.125,-9.369l-140.804,-0l-3.125,9.369Zm180.963,102l11.017,-0l-113.023,-293.579l-5.023,-0.001l-0,13.862l107.029,279.718Z" style="fill:#27aae1;fill-rule:nonzero;"/></g><path id="Baseline-M" d="M1095.83,4691.67l11554.2,-0" style="fill:none;fill-rule:nonzero;stroke:#27aae1;stroke-width:2.08px;"/><path id="Capline-M" d="M1095.83,4398.08l11554.2,0" style="fill:none;fill-rule:nonzero;stroke:#27aae1;stroke-width:2.08px;"/><g id="H-reference2" serif:id="H-reference"><path d="M1416.64,6483.33l11.017,0l107.043,-279.718l2.926,0l0,-13.861l-7.949,0l-113.037,293.579Zm44.562,-101.999l147.054,-0l-3.125,-9.369l-140.804,-0l-3.125,9.369Zm180.963,101.999l11.017,0l-113.023,-293.579l-5.023,0l-0,13.861l107.029,279.718Z" style="fill:#27aae1;fill-rule:nonzero;"/></g><path id="Baseline-L" d="M1095.83,6483.33l11554.2,0" style="fill:none;fill-rule:nonzero;stroke:#27aae1;stroke-width:2.08px;"/><path id="Capline-L" d="M1095.83,6189.75l11554.2,0" style="fill:none;fill-rule:nonzero;stroke:#27aae1;stroke-width:2.08px;"/><path id="left-margin-Regular-M" d="M5833.79,4294.96l-0,497.209" style="fill:none;fill-rule:nonzero;stroke:#00aeef;stroke-width:2.08px;"/><path id="right-margin-Regular-M" d="M6248.25,4294.96l0,497.209" style="fill:none;fill-rule:nonzero;stroke:#00aeef;stroke-width:2.08px;"/></g><g id="Symbols"><g id="Black-L"><path d="M11983.3,6309.35c-0,125.449 85.48,206.271 200.557,220.751l0,28.904l-92.548,0c-22.571,0 -42.253,18.217 -42.253,40.707c-0,22.084 19.682,40.793 42.253,40.793l262.3,0.001c22.492,-0.001 42.167,-18.71 42.167,-40.794c-0,-22.49 -19.675,-40.707 -42.167,-40.707l-92.633,0l0,-28.904c115.171,-14.48 200.65,-95.302 200.65,-220.751l-0,-47.857c-0,-22.332 -18.708,-39.576 -41.525,-39.576c-22.733,-0 -41.921,17.244 -41.921,39.576l0,45.389c0,89.343 -67.492,146.497 -155.72,146.497c-88.223,0 -155.714,-57.154 -155.714,-146.497l0,-45.389c0,-22.332 -19.195,-39.576 -42.01,-39.576c-22.728,-0 -41.436,17.244 -41.436,39.576l-0,47.857Zm121.866,-18.584c-0,72.521 49.887,122.725 117.294,122.725c67.326,-0 117.299,-50.204 117.299,-122.725l0,-158.177c0,-72.032 -49.973,-122.724 -117.299,-122.724c-67.407,0.001 -117.294,50.692 -117.294,122.724l-0,158.177Zm84.416,3.651l-0,-165.478c-0,-22.031 11.04,-41.651 32.878,-41.651c21.757,-0 32.879,19.376 32.879,41.651l-0,165.478c-0,22.274 -11.122,41.651 -32.879,41.651c-21.838,-0 -32.878,-19.377 -32.878,-41.651Z" style="fill-rule:nonzero;"/></g><g id="Heavy-L"><path d="M10759.6,6310.6c-0,119.851 81.225,198.507 192.672,211.452l0,37.204l-93.966,0c-19.701,0 -36.7,15.86 -36.7,35.459c-0,19.329 16.999,35.584 36.7,35.584l255.756,0c19.596,0 36.571,-16.255 36.571,-35.584c-0,-19.599 -16.975,-35.459 -36.571,-35.459l-94.094,0l-0,-37.204c111.598,-12.945 192.823,-91.601 192.823,-211.452l-0,-48.982c-0,-19.539 -16.254,-34.654 -36.142,-34.654c-19.787,-0 -36.391,15.115 -36.391,34.654l-0,46.739c-0,89.276 -65.36,147.076 -154.075,147.076c-88.693,0 -154.054,-57.8 -154.054,-147.076l0,-46.739c0,-19.539 -16.626,-34.654 -36.513,-34.654c-19.762,-0 -36.016,15.115 -36.016,34.654l-0,48.982Zm114.797,-16.509c-0,69.45 47.094,117.694 111.786,117.694c64.589,-0 111.809,-48.244 111.809,-117.694l0,-160.044c0,-69.08 -47.22,-117.693 -111.809,-117.693c-64.692,0 -111.786,48.613 -111.786,117.693l-0,160.044Zm73.25,2.788l0,-165.621c0,-26.102 13.731,-47.136 38.536,-47.136c24.702,0 38.535,20.848 38.535,47.136l0,165.621c0,26.289 -13.833,47.136 -38.535,47.136c-24.805,-0 -38.536,-20.847 -38.536,-47.136Z" style="fill-rule:nonzero;"/></g><g id="Bold-L"><path d="M9538.26,6312.11c-0,113.122 76.254,189.119 183.528,200.113l0,47.761l-96.1,0c-16.177,0 -29.94,12.977 -29.94,29.052c0,15.936 13.763,29.211 29.94,29.211l248.43,0c16.076,0 29.784,-13.275 29.784,-29.211c0,-16.075 -13.708,-29.052 -29.784,-29.052l-96.257,0l-0.001,-47.761c107.488,-10.994 183.742,-86.991 183.742,-200.113l0,-50.017c0,-16.112 -13.275,-28.603 -29.575,-28.603c-16.196,0 -29.662,12.491 -29.662,28.602l-0,48.095c-0,89.055 -63.044,147.656 -152.461,147.656c-89.362,0 -152.408,-58.601 -152.408,-147.656l-0,-48.095c-0,-16.111 -13.519,-28.602 -29.819,-28.602c-16.142,0 -29.417,12.491 -29.417,28.602l-0,50.018Zm106.677,-14.289c0,65.547 43.637,111.42 104.967,111.42c61.226,0 105.021,-45.873 105.021,-111.42l0,-162.567c0,-65.304 -43.795,-111.421 -105.021,-111.421c-61.33,0 -104.967,46.117 -104.967,111.421l0,162.567Zm59.668,1.825l0,-166.217c0,-30.757 16.875,-53.706 45.299,-53.706c28.321,0 45.298,22.828 45.298,53.706l0,166.217c0,30.879 -16.977,53.706 -45.298,53.706c-28.424,-0 -45.299,-22.827 -45.299,-53.706Z" style="fill-rule:nonzero;"/></g><g id="Semibold-L"><path d="M8312.22,6313.15c-0,108.483 72.826,182.648 177.225,192.296l-0,55.039l-97.571,0c-13.749,0 -25.281,10.99 -25.281,24.636c0.001,13.595 11.532,24.816 25.281,24.816l243.381,0c13.646,0 25.1,-11.221 25.1,-24.816c0,-13.646 -11.454,-24.636 -25.1,-24.636l-97.751,0l-0,-55.039c104.656,-9.648 177.48,-83.813 177.48,-192.296l0,-50.731c0,-13.749 -11.22,-24.43 -25.045,-24.43c-13.725,0.001 -25.025,10.681 -25.025,24.43l-0.001,49.028c0.001,88.904 -61.448,148.057 -151.348,148.057c-89.824,-0 -151.274,-59.153 -151.274,-148.057l0,-49.028c0,-13.749 -11.376,-24.43 -25.203,-24.43c-13.647,0.001 -24.868,10.681 -24.868,24.43l-0,50.731Zm101.08,-12.758c-0,62.857 41.253,107.095 100.265,107.095c58.908,0 100.342,-44.238 100.342,-107.095l-0,-164.306c-0,-62.702 -41.434,-107.097 -100.342,-107.097c-59.012,0 -100.265,44.395 -100.265,107.097l-0,164.306Zm50.303,1.16l0.001,-166.627c-0.001,-33.965 19.041,-58.235 49.961,-58.235c30.815,-0 49.961,24.192 49.961,58.235l-0,166.627c-0,34.043 -19.146,58.236 -49.961,58.236c-30.92,-0 -49.961,-24.193 -49.961,-58.236Z" style="fill-rule:nonzero;"/></g><g id="Medium-L"><path d="M7083.73,6313.94c0,104.964 70.228,177.74 172.445,186.368l0,60.558l-98.685,-0c-11.908,-0 -21.748,9.482 -21.748,21.287c-0,11.821 9.84,21.484 21.748,21.484l239.552,0c11.804,0 21.55,-9.663 21.55,-21.484c-0,-11.805 -9.746,-21.287 -21.55,-21.287l-98.883,-0l-0,-60.558c102.508,-8.628 172.737,-81.404 172.737,-186.368l-0,-51.273c-0,-11.958 -9.667,-21.266 -21.617,-21.266c-11.85,0 -21.508,9.308 -21.508,21.266l-0,49.736c-0,88.789 -60.238,148.36 -150.505,148.36c-90.174,0 -150.413,-59.571 -150.413,-148.36l-0,-49.736c-0,-11.958 -9.752,-21.266 -21.704,-21.266c-11.755,0 -21.419,9.308 -21.419,21.266l0,51.273Zm96.836,-11.598c-0,60.816 39.445,103.815 96.7,103.815c57.15,0 96.793,-42.999 96.793,-103.815l0,-165.625c0,-60.729 -39.643,-103.813 -96.793,-103.813c-57.255,0 -96.7,43.084 -96.7,103.813l-0,165.625Zm43.203,0.657l0,-166.939c0,-36.398 20.685,-61.67 53.497,-61.67c32.707,0 53.496,25.228 53.496,61.67l-0,166.939c-0,36.442 -20.789,61.67 -53.496,61.67c-32.812,-0 -53.497,-25.228 -53.497,-61.67Z" style="fill-rule:nonzero;"/></g><g id="Regular-L"><path d="M5857.63,6314.96c-0,100.376 66.837,171.339 166.21,178.637l0,67.755l-100.14,0c-9.506,0 -17.139,7.518 -17.139,16.919c0,9.507 7.633,17.139 17.139,17.139l234.559,0c9.401,0 16.919,-7.632 16.919,-17.139c-0,-9.401 -7.518,-16.919 -16.919,-16.919l-100.36,0l-0,-67.755c99.707,-7.298 166.546,-78.261 166.546,-178.637l-0,-51.979c-0,-9.622 -7.634,-17.139 -17.142,-17.139c-9.4,0 -16.917,7.517 -16.917,17.139l-0,50.66c-0,88.639 -58.662,148.755 -149.407,148.755c-90.63,0 -149.291,-60.116 -149.291,-148.755l0,-50.66c0,-9.622 -7.632,-17.139 -17.139,-17.139c-9.286,0 -16.919,7.517 -16.919,17.139l-0,51.979Zm91.299,-10.085c-0,58.156 37.088,99.538 92.05,99.538c54.858,0 92.166,-41.382 92.166,-99.538l0,-167.344c0,-58.156 -37.308,-99.538 -92.166,-99.538c-54.962,-0 -92.05,41.382 -92.05,99.538l-0,167.344Zm33.943,-0l-0,-167.344c-0,-39.572 22.828,-66.15 58.107,-66.15c35.175,0 58.108,26.578 58.108,66.15l-0,167.344c-0,39.572 -22.933,66.15 -58.108,66.15c-35.279,-0 -58.107,-26.578 -58.107,-66.15Z" style="fill-rule:nonzero;"/></g><g id="Light-L"><path d="M4627.5,6315.68c0,97.037 65.327,166.33 163.905,171.958l-0,76.82l-104.037,0c-7.28,0 -13.243,5.768 -13.243,13.103c0,7.279 5.963,13.242 13.243,13.242l234.559,0c7.334,0 13.102,-5.963 13.102,-13.242c-0,-7.335 -5.768,-13.103 -13.102,-13.103l-104.177,0l-0.001,-76.82c98.913,-5.628 164.24,-74.921 164.24,-171.958l0.001,-50.388c-0.001,-7.475 -5.963,-13.242 -13.242,-13.242c-7.336,-0 -13.104,5.767 -13.104,13.242l0,49.547c0,87.605 -59.138,148.278 -150.997,148.278c-91.664,0 -150.802,-60.673 -150.802,-148.278l0,-49.547c0,-7.475 -5.962,-13.242 -13.242,-13.242c-7.139,-0 -13.103,5.767 -13.103,13.242l0,50.388Zm89.789,-10.8c-0,54.816 34.702,94.926 87.358,94.926c52.711,-0 87.554,-40.11 87.554,-94.926l-0,-170.445c-0,-54.816 -34.843,-94.925 -87.554,-94.925c-52.656,0 -87.358,40.109 -87.358,94.925l-0,170.445Zm26.149,-0l0,-170.445c0,-40.288 23.783,-69.25 61.209,-69.25c37.481,0 61.209,28.962 61.209,69.25l0,170.445c0,40.288 -23.728,69.251 -61.209,69.251c-37.426,0 -61.209,-28.963 -61.209,-69.251Z" style="fill-rule:nonzero;"/></g><g id="Thin-L"><path d="M3399.34,6316.62c0,92.619 63.329,159.704 160.855,163.123l-0,88.81l-109.19,0c-4.335,0 -8.09,3.454 -8.09,8.054c0,4.335 3.755,8.089 8.09,8.089l234.558,-0c4.599,-0 8.053,-3.754 8.053,-8.089c0,-4.6 -3.454,-8.054 -8.053,-8.054l-109.226,0l0,-88.81c97.861,-3.419 161.189,-70.504 161.189,-163.123l0,-48.285c0,-4.635 -3.753,-8.089 -8.088,-8.089c-4.6,0 -8.054,3.454 -8.054,8.089l-0,48.074c-0,86.238 -59.77,147.648 -153.101,147.648c-93.031,-0 -152.8,-61.41 -152.8,-147.648l0,-48.074c0,-4.635 -3.754,-8.089 -8.089,-8.089c-4.299,0 -8.054,3.454 -8.054,8.089l0,48.285Zm87.79,-11.747c0,50.399 31.547,88.826 81.153,88.826c49.872,-0 81.454,-38.427 81.454,-88.826l-0,-174.547c-0,-50.399 -31.582,-88.827 -81.454,-88.827c-49.606,0 -81.153,38.428 -81.153,88.827l0,174.547Zm15.843,-0l-0,-174.547c-0,-41.234 25.044,-73.352 65.31,-73.352c40.532,0 65.311,32.118 65.311,73.352l0,174.547c0,41.235 -24.779,73.353 -65.311,73.353c-40.266,-0 -65.31,-32.118 -65.31,-73.353Z" style="fill-rule:nonzero;"/></g><g id="Ultralight-L"><path d="M2167.21,6317.11c-0,90.356 62.304,156.31 159.292,158.597l0,94.952l-111.83,0c-2.826,0 -5.45,2.269 -5.45,5.468c0,2.827 2.624,5.45 5.45,5.45l234.559,-0c3.198,-0 5.468,-2.623 5.468,-5.45c-0,-3.199 -2.27,-5.468 -5.468,-5.468l-111.812,0l0,-94.952c97.322,-2.287 159.627,-68.241 159.627,-158.597l0,-47.208c0,-3.18 -2.622,-5.449 -5.449,-5.449c-3.2,0 -5.468,2.269 -5.468,5.449l0,47.32c0,85.538 -60.093,147.325 -154.178,147.325c-93.732,-0 -153.823,-61.787 -153.823,-147.324l-0,-47.321c-0,-3.18 -2.624,-5.449 -5.45,-5.449c-2.845,0 -5.468,2.269 -5.468,5.449l-0,47.208Zm86.766,-12.232c0,48.136 29.931,85.701 77.975,85.701c48.417,0 78.329,-37.565 78.329,-85.701l-0,-176.648c-0,-48.136 -29.912,-85.701 -78.329,-85.701c-48.044,0 -77.975,37.565 -77.975,85.701l0,176.648Zm10.563,-0l0,-176.648c0,-41.719 25.691,-75.455 67.412,-75.455c42.093,0 67.412,33.736 67.412,75.455l-0,176.648c-0,41.72 -25.319,75.454 -67.412,75.454c-41.721,0 -67.412,-33.734 -67.412,-75.454Z" style="fill-rule:nonzero;"/></g><g id="Black-M"><path d="M12027.3,4522.82c-0,101.549 69.677,165.801 161.844,178.113l0,16.487l-71.009,0c-19.652,0 -36.981,15.903 -36.981,35.531c0,19.176 17.329,35.553 36.981,35.553l208.842,0c19.628,0 36.959,-16.377 36.959,-35.553c-0,-19.628 -17.331,-35.531 -36.959,-35.531l-71.031,0l-0,-16.487c92.189,-12.312 161.867,-76.564 161.867,-178.113l-0,-35.894c-0,-19.412 -16.379,-34.364 -36.268,-34.364c-19.866,0 -36.72,14.952 -36.72,34.364l-0,33.854c-0,69.135 -54.183,112.935 -122.268,112.935c-68.088,-0 -122.271,-43.801 -122.271,-112.936l0,-33.853c0,-19.412 -16.853,-34.364 -36.742,-34.364c-19.867,0 -36.244,14.952 -36.244,34.364l-0,35.894Zm100.285,-16.277c0,58.371 40.726,98.778 94.972,98.778c54.22,0 94.969,-40.407 94.969,-98.778l-0,-121.363c-0,-57.895 -40.749,-98.777 -94.969,-98.777c-54.246,-0 -94.972,40.882 -94.972,98.777l0,121.363Zm73.94,3.569l0,-128.5c0,-13.666 6.371,-27.975 21.032,-27.975c14.636,-0 21.03,14.07 21.03,27.975l0,128.5c0,13.904 -6.394,27.975 -21.03,27.975c-14.661,-0 -21.032,-14.071 -21.032,-27.975Z" style="fill-rule:nonzero;"/></g><g id="Heavy-M"><path d="M10802.7,4523.99c-0.001,96.385 65.657,158.673 154.349,169.638l-0,23.766l-72.037,-0c-17.051,-0 -31.911,13.759 -31.911,30.752c-0,16.688 14.86,30.821 31.911,30.821l202.443,-0c16.992,-0 31.842,-14.133 31.842,-30.821c0,-16.993 -14.85,-30.752 -31.842,-30.752l-72.105,-0l-0.001,-23.766c88.77,-10.965 154.427,-73.253 154.427,-169.638l0,-37.141c0,-16.879 -14.132,-29.911 -31.365,-29.911c-17.175,-0 -31.661,13.032 -31.661,29.911l-0,35.276c-0,69.165 -52.057,113.546 -120.517,113.546c-68.45,-0 -120.507,-44.381 -120.507,-113.546l0,-35.276c0,-16.879 -14.496,-29.911 -31.729,-29.911c-17.165,-0 -31.298,13.032 -31.298,29.911l0.001,37.141Zm93.514,-14.183c0,55.677 38.216,94.286 90.019,94.286c51.744,-0 90.029,-38.609 90.029,-94.286l0,-122.902c0,-55.313 -38.285,-94.285 -90.029,-94.285c-51.803,-0 -90.019,38.972 -90.019,94.285l0,122.902Zm63.745,2.726l-0,-128.354c-0,-17.58 8.912,-33.051 26.274,-33.051c17.304,0 26.275,15.289 26.275,33.051l-0,128.354c-0,17.762 -8.971,33.051 -26.275,33.051c-17.362,-0 -26.274,-15.289 -26.274,-33.051Z" style="fill-rule:nonzero;"/></g><g id="Bold-M"><path d="M9579.47,4525.29c0,90.609 61.161,150.7 145.965,160.159l-0,31.907l-73.186,-0c-14.143,-0 -26.24,11.362 -26.24,25.407c-0,13.905 12.097,25.526 26.24,25.526l195.282,0c14.045,0 26.121,-11.621 26.121,-25.526c-0,-14.045 -12.076,-25.407 -26.121,-25.407l-73.305,-0l0,-31.907c84.945,-9.459 146.105,-69.55 146.105,-160.159l0,-38.535c0,-14.045 -11.62,-24.931 -25.882,-24.931c-14.164,0 -26.002,10.886 -26.002,24.931l-0,36.868c-0,69.198 -49.679,114.228 -118.557,114.228c-68.856,-0 -118.535,-45.03 -118.535,-114.228l-0,-36.868c-0,-14.045 -11.859,-24.931 -26.121,-24.931c-14.143,0 -25.764,10.886 -25.764,24.931l0,38.535Zm85.94,-11.841c0,52.665 35.41,89.262 84.48,89.262c48.973,-0 84.501,-36.597 84.501,-89.262l0,-124.622c0,-52.427 -35.528,-89.26 -84.501,-89.26c-49.07,-0 -84.48,36.833 -84.48,89.26l0,124.622Zm52.339,1.785l0,-128.191c0,-21.958 11.757,-38.729 32.141,-38.729c20.287,0 32.141,16.652 32.141,38.729l0,128.191c0,22.077 -11.854,38.728 -32.141,38.728c-20.384,-0 -32.141,-16.651 -32.141,-38.728Z" style="fill-rule:nonzero;"/></g><g id="Semibold-M"><path d="M8352.24,4526.18c-0,86.627 58.06,145.203 140.184,153.623l0,37.52l-73.978,-0c-12.137,-0 -22.33,9.709 -22.33,21.722c0,11.986 10.193,21.876 22.33,21.876l190.346,0c12.014,0 22.176,-9.89 22.176,-21.876c0,-12.013 -10.162,-21.722 -22.176,-21.722l-74.132,-0l0,-37.52c82.308,-8.42 140.368,-66.996 140.368,-153.623l0,-39.496c0,-12.092 -9.889,-21.499 -22.103,-21.499c-12.089,0 -22.1,9.407 -22.1,21.499l-0,37.965c-0,69.221 -48.04,114.697 -117.206,114.697c-69.136,0 -117.176,-45.476 -117.176,-114.697l0,-37.965c0,-12.092 -10.041,-21.499 -22.254,-21.499c-12.059,0 -21.949,9.407 -21.949,21.499l-0,39.496Zm80.718,-10.226c0,50.588 33.474,85.797 80.661,85.797c47.062,-0 80.691,-35.209 80.691,-85.797l0,-125.809c0,-50.436 -33.629,-85.797 -80.691,-85.797c-47.187,0 -80.661,35.361 -80.661,85.797l0,125.809Zm44.476,1.134l0,-128.078c0,-24.976 13.717,-42.642 36.185,-42.642c22.344,-0 36.185,17.59 36.185,42.642l0,128.078c0,25.053 -13.841,42.643 -36.185,42.643c-22.468,0 -36.185,-17.59 -36.185,-42.643Z" style="fill-rule:nonzero;"/></g><g id="Medium-M"><path d="M7122.78,4526.86c-0,83.607 55.709,141.035 135.801,148.667l-0,41.776l-74.579,0c-10.617,0 -19.366,8.456 -19.366,18.928c0,10.531 8.749,19.109 19.366,19.109l186.604,-0.001c10.472,0.001 19.184,-8.577 19.184,-19.108c0,-10.472 -8.712,-18.928 -19.184,-18.928l-74.76,0l0,-41.776c80.309,-7.632 136.018,-65.06 136.018,-148.667l0,-40.225c0,-10.611 -8.577,-18.895 -19.237,-18.895c-10.515,-0 -19.142,8.284 -19.142,18.895l-0,38.797c-0,69.238 -46.797,115.054 -116.181,115.054c-69.349,-0 -116.146,-45.816 -116.146,-115.054l0,-38.797c0,-10.611 -8.662,-18.895 -19.322,-18.895c-10.479,-0 -19.056,8.284 -19.056,18.895l-0,40.225Zm76.758,-9.002c0,49.013 32.007,83.17 77.766,83.17c45.613,0 77.802,-34.157 77.802,-83.17l-0,-126.708c-0,-48.928 -32.189,-83.171 -77.802,-83.171c-45.759,0.001 -77.766,34.243 -77.766,83.171l0,126.708Zm38.514,0.642l0,-127.993c0,-27.265 15.204,-45.61 39.252,-45.61c23.903,0 39.251,18.303 39.251,45.61l0,127.993c0,27.308 -15.348,45.61 -39.251,45.61c-24.048,0 -39.252,-18.302 -39.252,-45.61Z" style="fill-rule:nonzero;"/></g><g id="Regular-M"><path id="p1" d="M6042.09,4322.01c-119.599,0 -216.666,97.067 -216.666,216.667c-0,119.6 97.066,216.667 216.666,216.666c119.6,0 216.667,-97.066 216.667,-216.666c0,-119.6 -97.067,-216.667 -216.667,-216.667Zm-10.225,17.964c0.122,-0.007 0.247,0.006 0.369,-0l0.921,14.693c-12.497,0.596 -24.66,2.418 -36.388,5.389l3.639,14.324c-30.782,7.798 -58.2,24.008 -79.684,46.061l-10.548,-10.318c-8.578,8.801 -16.248,18.469 -22.938,28.834l-12.344,-8.153c33.714,-52.128 91.141,-87.49 156.973,-90.83Zm20.082,-0c65.985,3.227 123.565,38.605 157.342,90.83l-12.344,8.153c-6.675,-10.339 -14.338,-20.005 -22.892,-28.788l-10.548,10.272c-21.487,-22.065 -48.937,-38.261 -79.73,-46.061l3.639,-14.324c-11.728,-2.971 -23.891,-4.793 -36.388,-5.389l0.921,-14.693Zm-9.857,64.944c6.265,-0.014 12.529,0.369 17.688,1.106l-8.061,67.063c16.943,2.471 31.798,11.338 42.053,24.09l53.798,-40.349c6.535,8.141 13.943,20.912 17.825,30.584l-61.812,26.438c3.107,7.677 4.836,16.041 4.836,24.827c0,8.464 -1.574,16.552 -4.468,23.997l61.306,26.208c-3.783,9.73 -11.114,22.478 -17.549,30.676l-53.429,-39.98c-10.242,13.043 -25.267,22.151 -42.422,24.688l7.923,65.958c-10.318,1.589 -25.057,1.567 -35.375,0.093l7.923,-66.051c-17.168,-2.539 -32.18,-11.676 -42.422,-24.734l-53.291,39.98c-6.535,-8.14 -13.943,-20.911 -17.825,-30.584l61.444,-26.3c-2.885,-7.434 -4.468,-15.502 -4.468,-23.951c-0,-8.801 1.719,-17.186 4.836,-24.873l-61.674,-26.346c3.783,-9.73 11.114,-22.478 17.549,-30.676l53.936,40.395c10.255,-12.752 25.11,-21.619 42.053,-24.09l-8.061,-66.971c5.159,-0.795 11.423,-1.183 17.687,-1.198Zm-177.054,42.928l13.265,6.541c-5.595,10.846 -10.169,22.298 -13.542,34.269l14.187,4.007c-4.125,14.636 -6.357,30.065 -6.357,46.014c0,15.965 2.225,31.411 6.357,46.06l-14.187,4.007c3.37,11.951 7.954,23.393 13.542,34.223l-13.265,6.54c-14.01,-27.236 -21.925,-58.113 -21.925,-90.83c-0,-32.717 7.915,-63.595 21.925,-90.831Zm354.109,0c14.01,27.236 21.925,58.114 21.925,90.831c0,32.717 -7.915,63.594 -21.925,90.83l-13.265,-6.54c5.591,-10.833 10.171,-22.268 13.542,-34.223l-14.187,-4.007c4.132,-14.649 6.357,-30.095 6.357,-46.06c-0,-15.949 -2.232,-31.378 -6.357,-46.014l14.187,-4.007c-3.372,-11.967 -7.949,-23.425 -13.542,-34.269l13.265,-6.541Zm-331.909,190.551c6.693,10.365 14.359,20.032 22.938,28.834l10.548,-10.318c21.484,22.052 48.902,38.263 79.684,46.06l-3.639,14.325c11.728,2.971 23.891,4.793 36.388,5.389l-0.921,14.693c-65.985,-3.228 -123.565,-38.606 -157.342,-90.83l12.344,-8.153Zm309.755,-0l12.298,8.153c-33.777,52.224 -91.357,87.602 -157.342,90.83l-0.921,-14.693c12.497,-0.596 24.66,-2.418 36.388,-5.389l-3.639,-14.325c30.793,-7.8 58.243,-23.996 79.73,-46.06l10.548,10.271c8.565,-8.793 16.255,-18.434 22.938,-28.787Z" style="fill-rule:nonzero;"/></g><g id="Light-M"><path d="M4664.63,4528.39c-0.001,76.674 51.288,131.107 128.017,136.215l-0,55.455l-78.856,0c-6.638,0 -12.006,5.252 -12.006,11.861c0,6.638 5.368,12.006 12.006,12.006l181.722,-0.001c6.608,0.001 11.861,-5.367 11.861,-12.005c-0,-6.609 -5.253,-11.861 -11.861,-11.861l-79,0l-0,-55.455c76.987,-5.108 128.276,-59.541 128.276,-136.215l-0,-39.75c-0,-6.753 -5.368,-12.006 -12.005,-12.006c-6.609,0 -11.862,5.253 -11.862,12.006l0,38.884c0,68.335 -45.602,115.092 -116.27,115.092c-70.553,-0 -116.156,-46.757 -116.156,-115.092l0,-38.884c0,-6.753 -5.368,-12.006 -12.005,-12.006c-6.494,0 -11.861,5.253 -11.861,12.006l-0,39.75Zm70.239,-8.046c0,43.964 27.954,75.609 69.783,75.609c41.799,-0 69.898,-31.645 69.898,-75.609l-0,-130.663c-0,-43.964 -28.099,-75.608 -69.898,-75.608c-41.829,-0 -69.783,31.644 -69.783,75.608l0,130.663Zm23.751,-0l0,-130.663c0,-30.891 17.998,-52.262 46.032,-52.262c28.005,0 46.031,21.371 46.031,52.262l0,130.663c0,30.891 -18.026,52.262 -46.031,52.262c-28.034,-0 -46.032,-21.371 -46.032,-52.262Z" style="fill-rule:nonzero;"/></g><g id="Thin-M"><path d="M3435.66,4529.24c-0,72.714 49.496,125.167 125.282,128.294l0,66.205l-83.476,-0c-3.997,-0 -7.385,3.177 -7.385,7.334c0,3.998 3.388,7.385 7.385,7.385l181.722,0c4.157,0 7.335,-3.387 7.335,-7.385c0,-4.157 -3.178,-7.334 -7.335,-7.334l-83.526,-0l-0,-66.205c76.045,-3.127 125.541,-55.58 125.541,-128.294l0,-37.865c0,-4.207 -3.387,-7.385 -7.384,-7.385c-4.157,0 -7.335,3.178 -7.335,7.385l-0,37.565c-0,67.108 -46.169,114.525 -118.157,114.525c-71.778,0 -117.947,-47.417 -117.947,-114.525l0,-37.565c0,-4.207 -3.388,-7.385 -7.385,-7.385c-3.947,0 -7.335,3.178 -7.335,7.385l-0,37.865Zm68.448,-8.895c-0,40.004 25.125,70.14 64.219,70.14c39.253,-0 64.429,-30.136 64.429,-70.14l-0,-134.34c-0,-40.004 -25.176,-70.14 -64.429,-70.14c-39.094,0 -64.219,30.136 -64.219,70.14l-0,134.34Zm14.51,-0l0,-134.34c0,-31.74 19.129,-55.94 49.709,-55.94c30.739,0 49.709,24.2 49.709,55.94l0,134.34c0,31.74 -18.97,55.939 -49.709,55.939c-30.58,0 -49.709,-24.199 -49.709,-55.939Z" style="fill-rule:nonzero;"/></g><g id="Ultralight-M"><path d="M2203.1,4529.68c0,70.685 48.579,122.124 123.882,124.237l0,71.71l-85.843,0c-2.645,0 -5.018,2.116 -5.018,5.017c-0,2.645 2.373,5.018 5.018,5.018l181.723,0c2.9,0 5.016,-2.373 5.016,-5.018c0,-2.901 -2.116,-5.017 -5.016,-5.017l-85.845,0l-0,-71.71c75.562,-2.113 124.141,-53.552 124.141,-124.237l-0,-36.899c-0,-2.903 -2.373,-5.018 -5.018,-5.018c-2.901,-0 -5.017,2.115 -5.017,5.018l0,36.888c0,66.481 -46.459,114.236 -119.123,114.236c-72.406,0 -118.864,-47.755 -118.864,-114.236l-0,-36.888c-0,-2.903 -2.374,-5.018 -5.019,-5.018c-2.643,-0 -5.017,2.115 -5.017,5.018l0,36.899Zm67.531,-9.33c-0,37.975 23.676,67.338 61.369,67.338c37.949,0 61.628,-29.363 61.628,-67.338l-0,-136.223c-0,-37.976 -23.679,-67.339 -61.628,-67.339c-37.693,-0 -61.369,29.363 -61.369,67.339l-0,136.223Zm9.777,-0l-0,-136.223c-0,-32.175 19.708,-57.824 51.592,-57.824c32.14,0 51.593,25.649 51.593,57.824l-0,136.223c-0,32.175 -19.453,57.823 -51.593,57.823c-31.884,-0.001 -51.592,-25.648 -51.592,-57.823Z" style="fill-rule:nonzero;"/></g><g id="Black-S"><path d="M12066.3,2735.61c-0,80.973 55.745,131.836 128.987,141.805l0,11.19l-55.542,-0c-16.072,-0 -30.314,13.021 -30.314,29.093c-0,15.666 14.242,29.094 30.314,29.094l165.609,-0c16.072,-0 30.314,-13.428 30.314,-29.094c0,-16.072 -14.242,-29.093 -30.314,-29.093l-55.542,-0l-0,-11.19c73.242,-9.969 128.988,-60.832 128.988,-141.805l-0,-27.669c-0,-15.869 -13.428,-28.076 -29.704,-28.076c-16.276,-0 -30.111,12.207 -30.111,28.075l0,26.042c0,54.118 -43.132,88.298 -96.435,88.298c-53.304,0 -96.436,-34.18 -96.436,-88.298l-0,-26.042c-0,-15.868 -13.835,-28.075 -30.111,-28.075c-16.276,-0 -29.703,12.207 -29.703,28.075l-0,27.67Zm80.566,-13.428c-0,46.387 32.552,78.532 75.684,78.532c43.131,0 75.683,-32.145 75.683,-78.532l0,-94.808c0,-45.979 -32.552,-78.531 -75.683,-78.531c-43.132,-0 -75.684,32.552 -75.684,78.531l-0,94.808Zm60.628,3.052l0,-100.911c0,-9.563 4.273,-20.549 15.056,-20.549c10.783,-0 15.055,10.783 15.055,20.549l-0,100.911c-0,9.766 -4.272,20.549 -15.055,20.549c-10.783,-0 -15.056,-10.783 -15.056,-20.549Z" style="fill-rule:nonzero;"/></g><g id="Heavy-S"><path d="M10839.3,2736.53c0,76.939 52.481,126.313 122.842,135.322l-0,16.376l-55.975,-0c-14.103,-0 -26.424,11.388 -26.424,25.444c-0,13.793 12.321,25.492 26.424,25.492l160.135,-0c14.056,-0 26.377,-11.699 26.377,-25.492c-0,-14.056 -12.321,-25.444 -26.377,-25.444l-56.022,-0l-0,-16.376c70.409,-9.009 122.889,-58.383 122.889,-135.322l0,-28.918c0,-13.949 -11.699,-24.715 -25.958,-24.715c-14.212,-0 -26.221,10.766 -26.221,24.715l-0,27.385c-0,54.263 -41.259,88.875 -94.755,88.875c-53.496,-0 -94.755,-34.612 -94.755,-88.875l-0,-27.385c-0,-13.949 -12.01,-24.715 -26.269,-24.715c-14.212,-0 -25.911,10.766 -25.911,24.715l0,28.918Zm74.949,-11.556c-0,44.466 30.679,75.219 71.986,75.219c41.259,-0 71.986,-30.753 71.986,-75.219l-0,-95.768c-0,-44.155 -30.727,-75.218 -71.986,-75.218c-41.307,-0.001 -71.986,31.063 -71.986,75.218l-0,95.768Zm52.801,2.331l-0,-100.43c-0,-12.828 6.337,-24.535 19.185,-24.535c12.799,0 19.184,11.552 19.184,24.535l0,100.43c0,12.984 -6.385,24.535 -19.184,24.535c-12.848,0 -19.185,-11.551 -19.185,-24.535Z" style="fill-rule:nonzero;"/></g><g id="Bold-S"><path d="M9613.42,2737.55c0,72.428 48.828,120.137 115.967,128.072l-0,22.176l-56.458,-0c-11.902,-0 -22.074,9.562 -22.074,21.362c-0,11.699 10.172,21.464 22.074,21.464l154.012,0c11.8,0 21.973,-9.765 21.973,-21.464c-0,-11.8 -10.173,-21.362 -21.973,-21.362l-56.559,-0l-0,-22.176c67.24,-7.935 116.068,-55.644 116.068,-128.072l0,-30.315c0,-11.799 -9.765,-20.955 -21.769,-20.955c-11.901,0 -21.871,9.156 -21.871,20.955l0,28.89c0,54.424 -39.164,89.519 -92.875,89.519c-53.711,-0 -92.875,-35.095 -92.875,-89.519l-0,-28.89c-0,-11.799 -9.969,-20.955 -21.972,-20.955c-11.903,0 -21.668,9.156 -21.668,20.955l0,30.315Zm68.664,-9.461c0,42.318 28.585,71.513 67.851,71.513c39.164,0 67.851,-29.195 67.851,-71.513l-0,-96.842c-0,-42.115 -28.687,-71.513 -67.851,-71.513c-39.266,0 -67.851,29.398 -67.851,71.513l0,96.842Zm44.048,1.526l-0,-99.894c-0,-16.479 8.646,-28.992 23.803,-28.992c15.055,0 23.804,12.411 23.804,28.992l-0,99.894c-0,16.582 -8.749,28.992 -23.804,28.992c-15.157,-0 -23.803,-12.41 -23.803,-28.992Z" style="fill-rule:nonzero;"/></g><g id="Semibold-S"><path d="M8384.3,2738.25c-0,69.318 46.31,115.88 111.227,123.074l-0,26.175l-56.791,-0c-10.383,-0 -19.075,8.303 -19.075,18.548c-0,10.254 8.692,18.687 19.075,18.687l149.791,-0c10.245,-0 18.936,-8.433 18.936,-18.687c0,-10.245 -8.691,-18.548 -18.936,-18.548l-56.93,-0l0.001,-26.175c65.055,-7.195 111.365,-53.756 111.365,-123.074l0,-31.276c0,-10.32 -8.432,-18.364 -18.88,-18.364c-10.31,-0 -18.873,8.044 -18.873,18.364l0,29.926c0,54.534 -37.72,89.963 -91.578,89.963c-53.86,-0 -91.58,-35.429 -91.58,-89.963l0,-29.926c0,-10.32 -8.562,-18.364 -19.01,-18.364c-10.31,-0 -18.742,8.044 -18.742,18.364l-0,31.276Zm64.332,-8.016c0,40.836 27.14,68.958 65,68.958c37.719,0 64.999,-28.122 64.999,-68.958l0,-97.583c0,-40.707 -27.28,-68.958 -64.999,-68.958c-37.86,0 -65,28.251 -65,68.958l0,97.583Zm38.011,0.97l0,-99.524c0,-18.997 10.239,-32.065 26.989,-32.065c16.61,0 26.988,13.003 26.988,32.065l-0,99.524c-0,19.063 -10.378,32.066 -26.988,32.066c-16.75,-0 -26.989,-13.003 -26.989,-32.066Z" style="fill-rule:nonzero;"/></g><g id="Medium-S"><path d="M7153.43,2738.78c-0,66.959 44.401,112.65 107.633,119.283l0,29.207l-57.043,0c-9.233,0 -16.801,7.349 -16.801,16.415c-0,9.159 7.568,16.581 16.801,16.581l146.59,-0c9.066,-0 16.634,-7.422 16.634,-16.581c0,-9.066 -7.568,-16.415 -16.634,-16.415l-57.21,0l-0,-29.207c63.399,-6.633 107.8,-52.324 107.8,-119.283l-0,-32.007c-0,-9.196 -7.422,-16.398 -16.691,-16.398c-9.102,-0 -16.598,7.202 -16.598,16.398l0,30.713c0,54.618 -36.625,90.299 -90.596,90.299c-53.972,0 -90.597,-35.681 -90.597,-90.3l0,-30.712c0,-9.196 -7.495,-16.398 -16.764,-16.398c-9.102,-0 -16.524,7.202 -16.524,16.398l-0,32.007Zm61.047,-6.922c0,39.714 26.046,67.021 62.838,67.021c36.625,0 62.837,-27.307 62.837,-67.021l0,-98.144c0,-39.641 -26.212,-67.021 -62.837,-67.021c-36.792,0 -62.838,27.38 -62.838,67.021l0,98.144Zm33.435,0.55l0,-99.243c0,-20.907 11.446,-34.396 29.403,-34.396c17.789,0 29.402,13.452 29.402,34.396l0,99.243c0,20.943 -11.613,34.395 -29.402,34.395c-17.957,-0 -29.403,-13.452 -29.403,-34.395Z" style="fill-rule:nonzero;"/></g><g id="Regular-S"><path d="M5924.25,2739.48c-0,63.883 41.91,108.439 102.946,114.339l-0,33.162l-57.373,0c-7.731,0 -13.835,6.104 -13.835,13.631c-0,7.731 6.104,13.835 13.835,13.835l142.415,0c7.528,0 13.631,-6.104 13.631,-13.835c0,-7.527 -6.103,-13.631 -13.631,-13.631l-57.576,0l-0,-33.162c61.238,-5.9 103.149,-50.456 103.149,-114.34l-0,-32.958c-0,-7.731 -6.103,-13.835 -13.835,-13.835c-7.527,-0 -13.631,6.104 -13.631,13.835l0,31.738c0,54.728 -35.197,90.739 -89.315,90.739c-54.117,-0 -89.315,-36.011 -89.315,-90.739l0,-31.738c0,-7.731 -6.103,-13.835 -13.834,-13.835c-7.528,-0 -13.631,6.104 -13.631,13.835l-0,32.959Zm56.762,-5.494c0.001,38.249 24.618,64.494 60.018,64.494c35.197,0 60.018,-26.245 60.018,-64.494l0,-98.876c0,-38.249 -24.821,-64.494 -60.018,-64.494c-35.4,-0 -60.017,26.245 -60.017,64.494l-0.001,98.876Zm27.466,0l0,-98.876c0,-23.398 13.021,-37.435 32.552,-37.435c19.328,-0 32.553,14.037 32.553,37.435l-0,98.876c-0,23.397 -13.225,37.435 -32.553,37.435c-19.531,0 -32.552,-14.038 -32.552,-37.435Z" style="fill-rule:nonzero;"/></g><g id="Light-S"><path d="M4692.85,2740.05c-0,61.235 40.712,104.466 101.117,109.042l-0,40.352l-60.464,-0c-5.965,-0 -10.744,4.716 -10.744,10.604c-0,5.965 4.779,10.744 10.744,10.744l142.416,0c5.887,0 10.604,-4.779 10.604,-10.744c-0,-5.888 -4.717,-10.604 -10.605,-10.604l-60.603,-0l-0,-40.352c60.608,-4.576 101.32,-47.807 101.32,-109.042l0,-31.698c0,-6.028 -4.779,-10.744 -10.744,-10.744c-5.888,0 -10.604,4.716 -10.604,10.744l0,30.856c0,53.908 -35.576,90.36 -90.576,90.36c-54.938,0 -90.513,-36.452 -90.513,-90.36l-0,-30.856c-0,-6.028 -4.779,-10.744 -10.745,-10.744c-5.824,0 -10.603,4.716 -10.603,10.744l-0,31.698Zm55.564,-6.061c0,35.6 22.726,60.836 56.297,60.836c33.494,0 56.36,-25.236 56.36,-60.836l0,-101.336c0,-35.6 -22.866,-60.836 -56.36,-60.836c-33.571,0 -56.297,25.236 -56.297,60.836l0,101.336Zm21.285,0l0,-101.336c0,-23.965 13.778,-39.895 35.012,-39.895c21.157,-0 35.012,15.93 35.012,39.895l-0,101.336c-0,23.965 -13.855,39.895 -35.012,39.895c-21.234,-0 -35.012,-15.93 -35.012,-39.895Z" style="fill-rule:nonzero;"/></g><g id="Thin-S"><path d="M3463,2740.8c0,57.731 39.128,99.211 98.698,102.034l0,49.862l-64.55,-0c-3.63,-0 -6.657,2.881 -6.657,6.6c-0,3.63 3.027,6.657 6.657,6.657l142.415,-0c3.719,-0 6.6,-3.027 6.6,-6.657c0,-3.719 -2.881,-6.6 -6.6,-6.6l-64.608,-0l0,-49.862c59.774,-2.823 98.901,-44.303 98.901,-102.034l0,-30.029c0,-3.777 -3.027,-6.657 -6.656,-6.657c-3.719,-0 -6.6,2.88 -6.6,6.657l-0,29.687c-0,52.824 -36.077,89.86 -92.245,89.86c-56.022,0 -92.098,-37.036 -92.098,-89.86l0,-29.687c0,-3.777 -3.027,-6.657 -6.657,-6.657c-3.572,-0 -6.6,2.88 -6.6,6.657l0,30.029Zm53.98,-6.812c-0,32.097 20.223,55.998 51.375,55.998c31.242,0 51.522,-23.901 51.522,-55.998l-0,-104.589c-0,-32.097 -20.28,-55.998 -51.522,-55.998c-31.152,0 -51.375,23.901 -51.375,55.998l-0,104.589Zm13.11,0l0,-104.589c0,-24.715 14.779,-43.148 38.265,-43.148c23.576,-0 38.265,18.433 38.265,43.148l0,104.589c0,24.716 -14.689,43.148 -38.265,43.148c-23.486,0 -38.265,-18.432 -38.265,-43.148Z" style="fill-rule:nonzero;"/></g><g id="Ultralight-S"><path d="M2230.01,2741.18c0,55.937 38.316,96.52 97.459,98.446l0.001,54.732l-66.645,0c-2.433,0 -4.563,1.941 -4.563,4.549c-0,2.434 2.13,4.564 4.563,4.564l142.416,-0c2.608,-0 4.549,-2.13 4.549,-4.564c-0,-2.608 -1.941,-4.549 -4.549,-4.549l-66.659,0l0,-54.732c59.347,-1.926 97.662,-42.509 97.662,-98.446l0.001,-29.175c-0.001,-2.622 -2.131,-4.563 -4.564,-4.563c-2.608,0 -4.549,1.941 -4.549,4.563l0,29.09c0,52.268 -36.332,89.604 -93.099,89.604c-56.578,-0 -92.91,-37.336 -92.91,-89.604l0,-29.09c0,-2.622 -2.13,-4.563 -4.564,-4.563c-2.418,0 -4.549,1.941 -4.549,4.563l0,29.175Zm53.168,-7.196c0,30.302 18.941,53.52 48.855,53.52c30.088,0 49.044,-23.218 49.044,-53.52l-0,-106.256c-0,-30.302 -18.956,-53.519 -49.044,-53.519c-29.914,-0 -48.855,23.217 -48.855,53.519l0,106.256Zm8.924,0l-0,-106.256c-0,-25.099 15.291,-44.814 39.931,-44.814c24.815,0 39.931,19.715 39.931,44.814l0,106.256c0,25.1 -15.116,44.814 -39.931,44.814c-24.64,0 -39.931,-19.714 -39.931,-44.814Z" style="fill-rule:nonzero;"/></g></g></svg>